<svg fill="none" height="100%" width="100%" viewBox="0 0 512 512" xmlns:xlink="http://www.w3.org/1999/xlink" xmlns="http://www.w3.org/2000/svg"><g transform="matrix(3.682,0,0,3.682,160.299,94.233)" id="i0"><g id="i1" transform="matrix(1,0,0,1,25.08,46)" opacity="0.95"><path fill="#92a7fe" fill-rule="evenodd" d="M-17.16,-30.36C-21.527,-30.36,-25.08,-26.807,-25.08,-22.44C-25.08,-22.44,-25.08,22.992,-25.08,22.992C-25.08,27.055,-21.527,30.36,-17.16,30.36C-17.16,30.36,25.08,30.36,25.08,30.36C25.08,30.36,25.08,27.72,25.08,27.72C25.08,27.72,-17.16,27.72,-17.16,27.72C-20.022,27.72,-22.44,25.554,-22.44,22.992C-22.44,20.465,-20.12,18.48,-17.16,18.48C-17.16,18.48,25.08,18.48,25.08,18.48C25.08,18.48,25.08,-30.36,25.08,-30.36C25.08,-30.36,-17.16,-30.36,-17.16,-30.36ZM-7.544,-15.84C-7.544,-15.84,-4.336,-15.84,-4.336,-15.84C-4.336,-15.84,2.64,4.517,2.64,4.517C2.64,4.517,2.64,5.28,2.64,5.28C2.64,5.28,0,5.28,0,5.28C0,5.28,0,4.955,0,4.955C0,4.955,-1.243,1.32,-1.243,1.32C-1.243,1.32,-10.637,1.32,-10.637,1.32C-10.637,1.32,-11.88,4.955,-11.88,4.955C-11.88,4.955,-11.88,5.28,-11.88,5.28C-11.88,5.28,-14.52,5.28,-14.52,5.28C-14.52,5.28,-14.52,4.517,-14.52,4.517C-14.52,4.517,-7.544,-15.84,-7.544,-15.84ZM-5.94,-12.375C-5.94,-12.375,-9.73,-1.32,-9.73,-1.32C-9.73,-1.32,-2.15,-1.32,-2.15,-1.32C-2.15,-1.32,-5.94,-12.375,-5.94,-12.375ZM9.24,-10.56C11.607,-10.56,13.2,-8.704,13.2,-5.94C13.2,-5.94,13.2,1.32,13.2,1.32C13.2,2.047,13.793,2.64,14.52,2.64C14.52,2.64,14.52,5.28,14.52,5.28C13.504,5.28,12.581,4.883,11.88,4.249C11.179,4.883,10.256,5.28,9.24,5.28C9.24,5.28,7.92,5.28,7.92,5.28C5.739,5.28,3.96,3.501,3.96,1.32C3.96,1.32,3.96,-1.32,3.96,-1.32C3.96,-3.501,5.739,-5.28,7.92,-5.28C7.92,-5.28,9.24,-5.28,9.24,-5.28C9.704,-5.28,10.148,-5.187,10.56,-5.038C10.56,-5.038,10.56,-5.94,10.56,-5.94C10.56,-6.842,10.328,-7.92,9.24,-7.92C8.59,-7.92,7.92,-7.765,7.92,-6.6C7.92,-6.6,5.28,-6.6,5.28,-6.6C5.28,-8.967,6.873,-10.56,9.24,-10.56ZM7.92,-2.64C7.193,-2.64,6.6,-2.047,6.6,-1.32C6.6,-1.32,6.6,1.32,6.6,1.32C6.6,2.047,7.193,2.64,7.92,2.64C7.92,2.64,9.24,2.64,9.24,2.64C9.967,2.64,10.56,2.047,10.56,1.32C10.56,1.32,10.56,-1.32,10.56,-1.32C10.56,-2.047,9.967,-2.64,9.24,-2.64C9.24,-2.64,7.92,-2.64,7.92,-2.64Z" /></g></g><g id="i2"><g transform="translate(329,217)"><animateTransform repeatCount="indefinite" type="translate" attributeName="transform" dur="2.035s" begin="0s" calcMode="spline" values="329 217; 296.5 261; 334 296; 366 254; 329 217; 329 217" keyTimes="0; 0.254886; 0.490672; 0.73254; 0.982623; 1" keySplines="0 0 1 1; 0 0 1 1; 0 0 1 1; 0 0 1 1; 0 0 1 1" fill="freeze" /><g transform="rotate(9) scale(3.682,3.682) translate(-45,-38.5)"><g id="i3" transform="matrix(1,0,0,1,52,38.187)"><path fill="#0033ff" d="M-8.261,-38.187C-24.659,-38.187,-38,-24.845,-38,-8.448C-38,7.95,-24.659,21.291,-8.261,21.291C-1.439,21.291,4.835,18.957,9.858,15.08C9.858,15.08,31.472,36.693,31.472,36.693C32.965,38.187,35.386,38.187,36.88,36.693C38.373,35.2,38.373,32.778,36.88,31.285C36.88,31.285,15.266,9.671,15.266,9.671C19.144,4.648,21.478,-1.626,21.478,-8.448C21.478,-24.845,8.137,-38.187,-8.261,-38.187ZM-8.261,-31.578C4.492,-31.578,14.869,-21.201,14.869,-8.448C14.869,4.305,4.492,14.683,-8.261,14.683C-21.014,14.683,-31.391,4.305,-31.391,-8.448C-31.391,-21.201,-21.014,-31.578,-8.261,-31.578Z" /></g></g></g></g></svg>